<?xml version="1.0" encoding="UTF-8" standalone="no"?>
<svg
   width="24"
   height="24"
   viewBox="0 0 24 24"
   fill="none"
   version="1.1"
   id="svg834"
   sodipodi:docname="cart.svg"
   inkscape:version="1.1 (c68e22c387, 2021-05-23)"
   xmlns:inkscape="http://www.inkscape.org/namespaces/inkscape"
   xmlns:sodipodi="http://sodipodi.sourceforge.net/DTD/sodipodi-0.dtd"
   xmlns="http://www.w3.org/2000/svg"
   xmlns:svg="http://www.w3.org/2000/svg">
  <defs
     id="defs838" />
  <sodipodi:namedview
     id="namedview836"
     pagecolor="#ffffff"
     bordercolor="#666666"
     borderopacity="1.0"
     inkscape:pageshadow="2"
     inkscape:pageopacity="0.0"
     inkscape:pagecheckerboard="0"
     showgrid="false"
     inkscape:zoom="18.270833"
     inkscape:cx="7.7445838"
     inkscape:cy="16.994299"
     inkscape:window-width="1920"
     inkscape:window-height="1057"
     inkscape:window-x="-8"
     inkscape:window-y="-8"
     inkscape:window-maximized="1"
     inkscape:current-layer="svg834" />
  <path
     fill-rule="evenodd"
     clip-rule="evenodd"
     d="M16 16H8V13.9988C8.02424 13.9996 8.04859 14 8.07303 14H16.7753C17.7469 14 18.5882 13.3489 18.7989 12.4339L19.9506 7.43386C19.9834 7.29141 20 7.14592 20 7C20 5.89543 19.0719 5 17.927 5H8.07303C8.04859 5 8.02424 5.00041 8 5.00122V3C8 2.44772 7.55228 2 7 2H5C4.44772 2 4 2.44772 4 3C4 3.55228 4.44772 4 5 4H6V17C6 17.5523 6.44772 18 7 18H16C16.5523 18 17 17.5523 17 17C17 16.4477 16.5523 16 16 16ZM9 20.5C9 21.3284 8.32843 22 7.5 22C6.67157 22 6 21.3284 6 20.5C6 19.6716 6.67157 19 7.5 19C8.32843 19 9 19.6716 9 20.5ZM16.5 22C17.3284 22 18 21.3284 18 20.5C18 19.6716 17.3284 19 16.5 19C15.6716 19 15 19.6716 15 20.5C15 21.3284 15.6716 22 16.5 22ZM8 12V7H18L16.8312 12H8Z"
     fill="white"
     id="path832"
     style="fill:#000000;fill-opacity:1" />
</svg>
