<?xml version="1.0" encoding="UTF-8" standalone="no"?>
<svg
   width="123"
   height="63"
   viewBox="0 0 123 63"
   fill="none"
   version="1.1"
   id="svg35"
   sodipodi:docname="logo.svg"
   inkscape:version="1.1 (c68e22c387, 2021-05-23)"
   xmlns:inkscape="http://www.inkscape.org/namespaces/inkscape"
   xmlns:sodipodi="http://sodipodi.sourceforge.net/DTD/sodipodi-0.dtd"
   xmlns="http://www.w3.org/2000/svg"
   xmlns:svg="http://www.w3.org/2000/svg">
  <defs
     id="defs39" />
  <sodipodi:namedview
     id="namedview37"
     pagecolor="#ffffff"
     bordercolor="#666666"
     borderopacity="1.0"
     inkscape:pageshadow="2"
     inkscape:pageopacity="0.0"
     inkscape:pagecheckerboard="0"
     showgrid="false"
     inkscape:zoom="3.4324853"
     inkscape:cx="-21.121722"
     inkscape:cy="4.2243444"
     inkscape:window-width="1920"
     inkscape:window-height="1057"
     inkscape:window-x="-8"
     inkscape:window-y="-8"
     inkscape:window-maximized="1"
     inkscape:current-layer="g164"
     width="120px" />
  <g
     inkscape:groupmode="layer"
     id="layer1"
     inkscape:label="Layer 1"
     style="display:inline">
    <g
       id="g150">
      <g
         id="g157">
        <g
           id="g164"
           inkscape:export-filename="C:\Users\Cleyt\Downloads\aocubo.png"
           inkscape:export-xdpi="96"
           inkscape:export-ydpi="96"
           transform="translate(0.80331282,0.6283652)">
          <path
             d="M 29.97888,0.04286776 V 61.999999 H 91.29144 V 0.04286776 Z M 87.69228,58.39835 H 33.57804 V 3.6016607 h 54.11424 z"
             fill="#05a8d7"
             id="path25"
             style="stroke-width:0.120754" />
          <path
             d="m 30.57168,0.04286776 c -0.2118,0 -0.38112,0 -0.5928,0 V 3.6874004 c 0.21168,0 0.381,0 0.5928,0 14.90472,0 27.01476,12.2627746 27.01476,27.3554326 0,15.092657 -12.11004,27.355517 -27.01476,27.355517 -0.2118,0 -0.38112,0 -0.5928,0 v 3.601649 c 0.21168,0 0.381,0 0.5928,0 16.8948,0 30.57156,-13.849214 30.57156,-30.957166 0,-17.107831 -13.67676,-30.99996524 -30.57156,-30.99996524 z"
             fill="#2f3944"
             id="path27"
             style="stroke-width:0.120754" />
          <path
             d="M 3.556812,30.999939 C 3.556812,16.078858 15.3282,3.9875499 29.97888,3.6445306 V 0 C 13.38036,0.3001386 0,14.063563 0,30.999939 0,47.936314 13.38036,61.656967 29.97888,61.957105 V 58.355456 C 15.3282,58.055319 3.556812,45.921141 3.556812,30.999939 Z"
             fill="#52bb77"
             id="path29"
             style="stroke-width:0.120754;fill:#2f3944;fill-opacity:1" />
          <path
             d="M 91.29144,0.04286776 H 87.69228 L 60.80448,58.39835 H 65.0388 L 89.47068,5.3596152 114.02964,58.39835 h -22.7382 v 3.558755 H 120 Z"
             fill="#f16055"
             id="path31"
             style="stroke-width:0.120754;fill:#2f3944;fill-opacity:1" />
          <path
             d="m 65.0388,58.39835 h -4.23432 l -1.65132,3.558755 H 91.29144 V 58.39835 Z"
             fill="#2f3944"
             id="path33"
             style="stroke-width:0.120754" />
        </g>
      </g>
    </g>
  </g>
</svg>
